<?xml version="1.0" encoding="utf-8"?>
<!-- Generator: Adobe Illustrator 25.0.0, SVG Export Plug-In . SVG Version: 6.00 Build 0)  -->
<svg version="1.1" id="Layer_1" xmlns="http://www.w3.org/2000/svg" xmlns:xlink="http://www.w3.org/1999/xlink" x="0px" y="0px"
	 viewBox="0 0 50 50" style="enable-background:new 0 0 50 50;" xml:space="preserve">
<style type="text/css">
	.st0{fill:#713C46;}
	.st1{fill:#F3EDDC;}
	.st2{fill:#F3EEDD;}
	.st3{fill:#6F3844;}
	.st4{fill:#6E3843;}
	.st5{fill:#703A45;}
	.st6{fill:#6E3842;}
	.st7{fill:#EFE3D6;}
	.st8{fill:#F3E6DA;}
	.st9{fill:#F3E9DB;}
	.st10{fill:#F5ECDE;}
</style>
<g>
	<path class="st0" d="M23.8,6.2c0.9,1,1.2,2.2,2.5,2.7c0,0.1,0,0.2,0,0.3c2.7,1.3,4.9,3.5,7.4,5.1c1.2-1.9-0.3-4.2,1.1-6
		c1.7-2.1,5.4-0.9,5.3,1.9c0,1.8-1.7,2.6-1.8,4.4c-0.8,2,0.5,3.7-0.8,5.5c-0.1,0-0.2,0-0.3,0c0,0.1,0,0.2,0,0.3
		c-1.6,0.9-3.6,0.6-4.8,2.3c-0.5,1-0.9,1.9-2.1,2.3c2.2,0.4,4.5,0.8,6.6-0.2c-1.9-0.7-1.6-4.1,0.5-4.3c2.9-0.5,3.7,3.7,0.9,4.4
		c2.9,1.4,2.1,5.8-1.2,5.9c-4.5-1.8-9.7-1.5-14.6-2c1.1,0.5,2.8,0.2,3.5,1.5c7.2,1.9,8-1.1,8.7,7.8c1.2,2.2,2.9,5-0.5,6.3
		c-2,0.9-3.1-1.3-4.9-1.5c-3-0.7-5.9-1.5-8.9-2.2c-1.6-0.4-3.3,0.7-4.7-0.6c-3-2.6,1.3-7.3,4.1-4.4c3.1,1.9,7.3,1.7,10.7,3
		c-0.2-1-0.3-2.1-0.8-3c-2.8-1.9-7.6,0.9-9-2.6c-0.3-0.7-1-0.9-1.5-1.3c-1.3-0.8-2.6-1.5-3.8-2.4c-1.3-0.9-3.1-0.3-4.1-1.7
		c-2-2.8,1.6-6.2,4.3-4.3c0,0.1,0,0.2,0,0.3c4.2,0.6,8.4,0.9,12.7,1.1c-1.8-0.8-2.2-3.1-1.1-4.7c1.1-1.3,3-0.9,4.2-2
		c-1-1.1-2.3-1.9-3.6-2.7c0-0.1,0-0.2,0-0.3c-1.5-0.6-2.7-1.8-4.1-2.8c-1.3-1.2-3.3-0.7-4.3-2.2C17.5,7.2,21.2,3.9,23.8,6.2z
		 M28.8,24.8c0.6,0.2,0.6,0.2,0.6,0.2L28.8,24.8z"/>
	<path class="st1" d="M14,24.5c0.5,0.1,0.7,0.3,0.9,0.7c0,0.1,0,0.2,0,0.3c7,0.3,14.1,1,21.1,1.7c0.5-1.6,2.9-0.6,2.5,0.9
		c-0.4,1.3-2,1.5-2.6,0.3c0-0.1,0-0.2,0-0.3c-6.6-0.1-13.1-1.1-19.7-1.4c2.5,1.2,4.6,4,7.5,4.1c0.5-0.1,1.2,0.4,1.1,1.1
		c10.3,2.3,6.5-1.7,8.7,8.6c2.8,0.5-0.2,4.3-1.5,1.8c0-0.1,0-0.3,0-0.5c-4.2-0.6-8.3-2-12.4-2.9c-1.2,0-3.1,1-3.2-1
		c0-1.4,1.9-1.8,2.6-0.7c0,0.2,0,0.4,0,0.6c4.5,0.7,8.8,2.2,13.3,3c-0.3-2.1-0.3-4.5-1.5-6.3c0-0.1,0-0.2,0-0.3
		c-2.3,0.1-4.7-1.6-6.8-0.8c-0.8,0.1-0.8,0.1-1.2,0c-1-2.2-3.2-3-5.2-4.3c-1.3-0.7-2.1-1.9-3.7-1.9C11.7,27.5,11.9,24,14,24.5z"/>
	<path class="st2" d="M21.7,7c0.7,0.1,1,0.3,1.4,0.9c0.9,2.7,4.5,3.6,6.4,5.5c1.8,0.9,3.4,3.3,5.3,3.3c0.8-2.6,0.8-2.6,1.2-5.3
		c-1.2-1.5,0.6-3.3,2.1-2c0.4,0.9,0.1,2-0.9,2.3c-0.3,1.8-1.6,4-0.9,5.7c0.1,0.6,0.1,1.2-0.2,1.7c-2.3,0-3.5,1.5-5.5,2.5
		c0.4,3.1-4,1.6-2.3-0.7c0.5-0.2,0.6-0.2,1.2-0.2c1.8,0.1,2.7-2,4.3-2.3c-0.6-1.9-3-2.4-4.3-3.7c-2.4-1.5-4.6-3.6-7.1-4.9
		C20.4,10.5,19.6,7.3,21.7,7z"/>
	<path class="st3" d="M38.5,20.5c3.3,1.5,0.5,5.4-2.4,4.5c0,0,0-0.1,0-0.2c0.2,0,0.5-0.1,0.8-0.2C34.4,23.6,35.9,19.6,38.5,20.5z"/>
	<path class="st4" d="M24.1,16.1c0,0.1,0,0.2,0,0.3c0.1,0,0.2,0,0.3,0c0.4,0.8,0.5,1.9,0,2.7c-0.1,0-0.2,0-0.3,0
		c0,0.1-0.1,0.3-0.2,0.5C19.1,22.1,19.5,13.1,24.1,16.1z"/>
	<path class="st5" d="M12.8,30.9c2.5,0.9,1.7,4.9-1,4.4C8.7,34.7,9.8,30.1,12.8,30.9z"/>
	<path class="st6" d="M32.1,6.9c1.5,0.7,1.7,2.3,0.9,3.6c-0.1,0-0.2,0-0.3,0c0,0.1,0,0.2,0,0.3C28.6,13.2,27.5,5.8,32.1,6.9z"/>
	<path class="st7" d="M22.3,17.2c0.4,0.1,0.4,0.1,0.8,0.2c0.1,0.3,0.1,0.3,0.2,0.6c-0.1,0.2-0.1,0.2-0.3,0.5c-0.2,0-0.5-0.1-0.8-0.2
		C22,17.9,22,17.9,22,17.5C22.1,17.4,22.2,17.3,22.3,17.2z"/>
	<path class="st8" d="M37.8,22.1c0.2,0,0.2,0,0.4,0c0.1,0.4,0.1,0.4,0.2,0.8c-0.1,0.1-0.2,0.2-0.3,0.3c-0.4-0.1-0.4-0.1-0.8-0.2
		c-0.1-0.2-0.1-0.5-0.2-0.8C37.3,22.1,37.3,22.1,37.8,22.1z"/>
	<path class="st9" d="M31,8.4c0.5,0.1,0.5,0.1,0.8,0.3c0,0.3,0,0.5,0,0.8c-0.3,0.1-0.6,0.1-0.9,0.2C30.6,9.4,30.6,8.7,31,8.4z"/>
	<path class="st10" d="M12.1,32.5c0.4,0,0.4,0,0.5,0.2c0,0.4,0,0.4,0,0.8c-0.1,0.2-0.9,0.2-1.1,0c0-0.4,0-0.4,0-0.8
		C11.7,32.5,11.7,32.5,12.1,32.5z"/>
</g>
</svg>
