<?xml version="1.0" encoding="utf-8"?>
<!-- Generator: Adobe Illustrator 25.0.0, SVG Export Plug-In . SVG Version: 6.00 Build 0)  -->
<svg version="1.1" id="Layer_1" xmlns="http://www.w3.org/2000/svg" xmlns:xlink="http://www.w3.org/1999/xlink" x="0px" y="0px"
	 viewBox="0 0 300 300" style="enable-background:new 0 0 300 300;" xml:space="preserve">
<style type="text/css">
	.st0{fill:#F4F5E0;}
</style>
<g>
	<path class="st0" d="M102.9,174.6c71.1-59.5,9.9-107,41.7-141.2c2,1.6,2.9,2,2.9,2.4c1,28.5,21.6,47,26.1,75.5
		c13.4-3.4,8.2-20.8,11.2-31.2c44.9,31.8-12.9,92,18.7,105.9c15,0.9,11.1-20.4,12.1-30.3c13.3-24.4,42,67.3,24.4,83.8
		c-25,49.4-96.6,84.8-139.7,34.4c-7.6-5.5-20.8-5.8-28-12.1c-46.8-50.2,14.3-93.7,21.4-143.3c0.2-1.9,2.7-5.4,3-5.2
		C120.3,124,108.7,154.8,102.9,174.6z M138.1,264.5c29.8,2.5,60.8-28.5,38.6-50.4c-19-10.6-15.9-28.3-25.9-43.1
		c-1.8,2.1-4.7,4-5.1,6.4c-2.8,17.2-12,29.4-27,38.3C93.8,230.9,112.7,265.4,138.1,264.5z"/>
	<path class="st0" d="M222.9,89.9c16.3,9.4,16,20.8,0.4,34C210.3,112.2,229.7,101.8,222.9,89.9z"/>
	<path class="st0" d="M103.9,64.3c3.7,10.3,6.9,19,1.6,29.1C91,88.3,89.2,73.7,103.9,64.3z"/>
	<path class="st0" d="M159.5,1.5c9.4,7.4,3.8,20.5-5,15.3C156.2,11.6,157.9,6.5,159.5,1.5z"/>
</g>
</svg>
